Coordinates
version=1
nRows=10
nColumns=46
inDegrees=yes

Units are S.I. units (second, meters, Newtons, ...)
Angles are in degrees.

endheader
time	pelvis_tilt	pelvis_list	pelvis_rotation	pelvis_tx	pelvis_ty	pelvis_tz	bb_angle	bb_tx	bb_ty	bb_tz	hip_flexion_r	hip_adduction_r	hip_rotation_r	knee_angle_r	knee_angle_r_beta	ankle_angle_r	subtalar_angle_r	mtp_angle_r	crank_angle_r	hip_flexion_l	hip_adduction_l	hip_rotation_l	knee_angle_l	knee_angle_l_beta	ankle_angle_l	subtalar_angle_l	mtp_angle_l	crank_angle_l	lumbar_extension	lumbar_bending	lumbar_rotation	arm_flex_r	arm_add_r	arm_rot_r	elbow_flex_r	pro_sup_r	wrist_flex_r	wrist_dev_r	arm_flex_l	arm_add_l	arm_rot_l	elbow_flex_l	pro_sup_l	wrist_flex_l	wrist_dev_l
      7.50000000	    -26.09159910	    -10.39070573	     -5.16895735	      0.38993739	      1.05616406	     -0.24881332	      0.00000000	      0.50000000	      0.00000000	      0.25000000	     69.99611628	      7.26687704	      1.48726934	    114.16052167	      1.99247698	     12.31342477	     -0.20457600	      0.00000000	      0.00000000	     37.74133559	    -16.50342233	     -1.60257336	     30.13686308	      0.52598749	     -6.70996770	     -1.79955670	      0.00000000	      0.00000000	    -52.62473174	      6.44752160	     11.82390238	     37.01701510	    -24.00835897	     13.82790766	     93.50168759	     52.78591108	      0.00000000	      0.00000000	     34.32953452	    -24.22241479	     16.72664517	     92.93630562	     48.74636919	      0.00000000	      0.00000000
      7.50500000	    -26.12407325	    -10.48882773	     -6.10925202	      0.39030964	      1.05609664	     -0.24882294	      0.00000000	      0.50000000	      0.00000000	      0.25000000	     71.34922117	      7.78466083	      1.58564089	    114.88018351	      2.00503745	     12.89687032	      0.31735974	      0.00000000	      0.00000000	     36.33591711	    -17.13299906	     -2.55143074	     29.21603212	      0.50991595	     -7.34223560	     -1.16485743	      0.00000000	      0.00000000	    -52.65732009	      6.29703279	     13.03062378	     36.92519740	    -25.19985514	     14.15437793	     94.10186143	     52.91748749	      0.00000000	      0.00000000	     34.54526269	    -23.20395489	     16.82901282	     92.00453549	     48.63631769	      0.00000000	      0.00000000
      7.51000000	    -26.17433512	    -10.45196339	     -7.10900017	      0.39070942	      1.05613550	     -0.24855041	      0.00000000	      0.50000000	      0.00000000	      0.25000000	     72.64896347	      8.40912570	      1.83570656	    115.42151446	      2.01448545	     13.49857406	      0.66938612	      0.00000000	      0.00000000	     34.94786504	    -17.68383413	     -3.74328668	     28.42505158	      0.49611074	     -7.79733880	     -0.56167445	      0.00000000	      0.00000000	    -52.67468541	      6.01771669	     13.91239425	     36.93243229	    -25.88128808	     14.40939472	     94.45651467	     52.99365054	      0.00000000	      0.00000000	     34.45710842	    -22.56271824	     16.89534027	     91.35042390	     48.55875346	      0.00000000	      0.00000000
      7.51500000	    -26.32822413	    -10.47045319	     -8.02042120	      0.39089430	      1.05626615	     -0.24845398	      0.00000000	      0.50000000	      0.00000000	      0.25000000	     73.98853088	      8.95620705	      1.90699026	    115.76703307	      2.02051589	     14.08336638	      0.90000836	      0.00000000	      0.00000000	     33.83870719	    -18.18631533	     -4.63088800	     27.86131465	      0.48627167	     -8.43141282	     -0.18227308	      0.00000000	      0.00000000	    -52.67332207	      5.92000153	     14.67412411	     37.23959431	    -26.19866686	     14.56161756	     94.69474088	     53.04389113	      0.00000000	      0.00000000	     34.15853774	    -22.28692063	     16.80498920	     91.05377353	     48.51195106	      0.00000000	      0.00000000
      7.52000000	    -26.21766593	    -10.31812758	     -9.06977769	      0.39135094	      1.05699012	     -0.24785497	      0.00000000	      0.50000000	      0.00000000	      0.25000000	     74.92719083	      9.58233757	      2.14340311	    115.92748187	      2.02331625	     14.85126563	      1.43194741	      0.00000000	      0.00000000	     32.39159087	    -18.69071658	     -6.29507465	     27.43053755	      0.47875320	     -8.74721912	      0.74234238	      0.00000000	      0.00000000	    -53.00140867	      5.46183483	     15.59941386	     37.36402164	    -27.40279256	     15.28282860	     95.30169286	     53.21525802	      0.00000000	      0.00000000	     34.19678742	    -21.27348010	     16.26177065	     90.15189259	     48.33875731	      0.00000000	      0.00000000
      7.52500000	    -26.21804125	    -10.13599979	     -9.98657495	      0.39170292	      1.05773065	     -0.24757550	      0.00000000	      0.50000000	      0.00000000	      0.25000000	     75.89913392	     10.07677269	      2.39182093	    115.87756258	      2.02244500	     15.56401209	      1.92890792	      0.00000000	      0.00000000	     31.23832573	    -19.01586410	     -7.69144057	     27.22711885	      0.47520287	     -9.25110213	      1.13376631	      0.00000000	      0.00000000	    -53.18525532	      5.09179062	     16.35163910	     37.53408884	    -28.15422946	     15.64127194	     95.69511108	     53.31029165	      0.00000000	      0.00000000	     34.08806177	    -20.64577098	     15.83647259	     89.51975627	     48.22586797	      0.00000000	      0.00000000
      7.53000000	    -26.34445023	    -10.03036497	    -10.64385452	      0.39171238	      1.05845730	     -0.24760984	      0.00000000	      0.50000000	      0.00000000	      0.25000000	     76.91971208	     10.30435253	      2.31086866	    115.64863376	      2.01844943	     16.22192392	      1.92414828	      0.00000000	      0.00000000	     30.50531093	    -19.22895416	     -8.56575377	     27.31050247	      0.47665819	     -9.72793371	      1.12585185	      0.00000000	      0.00000000	    -53.31237426	      4.99834142	     16.86780932	     37.92606723	    -28.37925909	     15.61681398	     95.84315946	     53.32501569	      0.00000000	      0.00000000	     33.93097321	    -20.59191822	     15.63879899	     89.32652338	     48.18223625	      0.00000000	      0.00000000
      7.53500000	    -26.13449058	     -9.78085552	    -11.72855343	      0.39227379	      1.06003999	     -0.24682237	      0.00000000	      0.50000000	      0.00000000	      0.25000000	     77.42233248	     10.95204321	      2.54466753	    115.18000159	      2.01027026	     16.92150105	      2.47606618	      0.00000000	      0.00000000	     29.18007615	    -19.59802235	    -10.45182438	     27.44849654	      0.47906664	     -9.99410551	      1.75291862	      0.00000000	      0.00000000	    -53.76641090	      4.26844721	     17.56869673	     38.14749688	    -29.34729462	     16.30779993	     96.24185399	     53.45522727	      0.00000000	      0.00000000	     33.87163639	    -19.69681174	     14.40993283	     88.71193171	     47.99424145	      0.00000000	      0.00000000
      7.54000000	    -26.05659393	     -9.57388451	    -12.48372730	      0.39265671	      1.06154087	     -0.24621901	      0.00000000	      0.50000000	      0.00000000	      0.25000000	     77.90792847	     11.36594394	      2.63830372	    114.53487909	      1.99901075	     17.69555661	      2.77966054	      0.00000000	      0.00000000	     28.31337755	    -19.81930742	    -11.74809154	     27.88398989	      0.48666743	    -10.30709373	      1.91378430	      0.00000000	      0.00000000	    -54.16122881	      3.83038177	     18.02184831	     38.55953911	    -29.83679531	     16.78842760	     96.52319387	     53.53982736	      0.00000000	      0.00000000	     33.82050016	    -19.29522620	     13.78917916	     88.31777089	     47.90031773	      0.00000000	      0.00000000
      7.54500000	    -25.99683110	     -9.32734604	    -13.13419750	      0.39299175	      1.06304710	     -0.24593748	      0.00000000	      0.50000000	      0.00000000	      0.25000000	     78.30772163	     11.63578796	      2.71839675	    113.71233868	      1.98465471	     18.49158513	      3.05150718	      0.00000000	      0.00000000	     27.62685119	    -19.90998869	    -12.74906347	     28.52896324	      0.49792434	    -10.53024516	      1.94477331	      0.00000000	      0.00000000	    -54.49997942	      3.44802614	     18.29914573	     39.10733852	    -30.41529891	     17.46298699	     96.72788422	     53.62624109	      0.00000000	      0.00000000	     33.80709114	    -18.84112751	     13.02727158	     87.93486735	     47.81149061	      0.00000000	      0.00000000
